<svg id="ehHl3OaVnA41" xmlns="http://www.w3.org/2000/svg" xmlns:xlink="http://www.w3.org/1999/xlink" viewBox="0 0 640 480" shape-rendering="geometricPrecision" text-rendering="geometricPrecision"><path d="M446.357243,35.890108c-79.0436,0-263.478668,0-263.478668,0s-32.101668,20.280612-32.105017,33.755275s30.698547,30.473511,30.698547,30.473511h264.885138" transform="translate(21.790905 322.550398)" fill="#be4b59" stroke="#fbfbfb" stroke-width="10"/><g><path d="M446.357243,35.890108c-79.0436,0-263.478668,0-263.478668,0s-32.101668,20.280612-32.105017,33.755275s30.698547,30.473511,30.698547,30.473511h264.885138" transform="translate(21.790905 28.129395)" fill="#fbfbfb" stroke="#fbfbfb" stroke-width="10"/><path d="M172.564463,392.195781v-294.421003" transform="translate(0 0.000001)" fill="#fbfbfb" stroke="#fbfbfb" stroke-width="10"/><path d="M172.564463,392.195781v-294.421003" transform="translate(295.583685-33.755275)" fill="#fbfbfb" stroke="#fbfbfb" stroke-width="10"/><ellipse rx="5.046684" ry="5.046684" transform="translate(468.195645 64.019503)" fill="#fbfbfb" stroke-width="0"/><ellipse rx="5.046684" ry="5.046684" transform="translate(468.148148 358.440506)" fill="#fbfbfb" stroke-width="0"/><ellipse rx="5.046684" ry="5.046684" transform="translate(468.148148 422.669292)" fill="#fbfbfb" stroke-width="0"/><path d="M468.195645,128.248289h-295.631182v230.192217h295.631182v-230.192217Z" transform="translate(0 0.000002)" fill="#fbfbfb" stroke-width="1.28"/><path d="M203.26301,128.248291L172.564463,97.774779l-.000001,30.473512h30.698548Z" transform="matrix(1 0 0 1.353761 0.000001-39.979074)" fill="#fbfbfb" stroke-width="1.28"/><path d="M172.564463,358.440508h32.105017l-32.109704,32.109704.004687-32.109704Z" transform="matrix(1 0 0 1.31434 0-117.718871)" fill="#fbfbfb" stroke-width="1.28"/></g><rect width="215.691925" height="20.626926" rx="0" ry="0" transform="translate(212.534092 113.011535)" fill="#be4b59" stroke-width="0"/><ellipse rx="10.811404" ry="10.811404" transform="matrix(.952833 0 0 0.952833 428.226016 123.324998)" fill="#be4b59" stroke-width="0"/><ellipse rx="10.811404" ry="10.811404" transform="matrix(.952833 0 0 0.952833 430.662868 192.918676)" fill="#be4b59" stroke-width="0"/><ellipse rx="10.811404" ry="10.811404" transform="matrix(.952833 0 0 0.952833 430.662868 267.191102)" fill="#be4b59" stroke-width="0"/><rect width="215.691925" height="20.626926" rx="0" ry="0" transform="translate(215.350997 182.605213)" fill="#be4b59" stroke-width="0"/><ellipse rx="10.811404" ry="10.811404" transform="matrix(.952833 0 0 0.952833 215.350996 192.918676)" fill="#be4b59" stroke-width="0"/><rect width="215.691925" height="20.626926" rx="0" ry="0" transform="translate(214.970943 256.877639)" fill="#be4b59" stroke-width="0"/><ellipse rx="10.811404" ry="10.811404" transform="matrix(.952833 0 0 0.952833 214.970943 267.191102)" fill="#be4b59" stroke-width="0"/><ellipse rx="10.811404" ry="10.811404" transform="matrix(.952833 0 0 0.952833 212.534092 123.324998)" fill="#be4b59" stroke-width="0"/></svg>