<svg id="eeDpxgEr3sJ1" xmlns="http://www.w3.org/2000/svg" xmlns:xlink="http://www.w3.org/1999/xlink" viewBox="0 0 640 480" shape-rendering="geometricPrecision" text-rendering="geometricPrecision"><g transform="matrix(.83586 0 0 0.835863 42.499831-84.625791)"><g><ellipse rx="72.0371" ry="72.0371" transform="translate(320 240)" fill="#be4b59" stroke-width="0"/><ellipse rx="72.0371" ry="72.0371" transform="matrix(.58514 0 0 0.58514 247.963 269.885)" fill="#be4b59" stroke-width="0"/><ellipse rx="72.0371" ry="72.0371" transform="matrix(.58514 0 0 0.58514 392.037 269.885)" fill="#be4b59" stroke-width="0"/><ellipse rx="72.0371" ry="72.0371" transform="matrix(.332981 0 0 0.332981 434.189 288.05)" fill="#be4b59" stroke-width="0"/><rect width="192.844" height="23.987" rx="0" ry="0" transform="matrix(.956147 0 0 0.999998 247.963 288.05)" fill="#be4b59" stroke-width="0"/></g><g transform="matrix(-.708626-.705584-.705584 0.708626 703.349 305.97)"><ellipse rx="18.5571" ry="24.1415" transform="translate(338.557 125.59)" fill="#73d892" stroke-width="0"/><ellipse rx="18.5571" ry="24.1415" transform="matrix(.514201 0.523022-.52302 0.514199 369.869 145.844)" fill="#73d892" stroke-width="0"/></g></g><g transform="translate(-25.678321-.000007)"><line x1="0" y1="-64.641371" x2="0" y2="64.641371" transform="matrix(-3 0 0 0.628864 320 240)" fill="none" stroke="#be4b59" stroke-width="3"/><ellipse rx="5.291117" ry="5.291117" transform="matrix(.85908 0 0 0.85908 320 199.349369)" fill="#be4b59" stroke-width="0"/><ellipse rx="5.291117" ry="5.291117" transform="matrix(.85908 0 0 0.85908 345.515851 256.766154)" fill="#be4b59" stroke-width="0"/><ellipse rx="5.291117" ry="5.291117" transform="matrix(.85908 0 0 0.85908 294.888004 256.547905)" fill="#be4b59" stroke-width="0"/><ellipse rx="5.291117" ry="5.291117" transform="matrix(.85908 0 0 0.85908 320 280.650631)" fill="#be4b59" stroke-width="0"/><g transform="matrix(.683202 0.73023-.314 0.293777 189.48699-35.580865)"><line x1="0" y1="-64.641371" x2="0" y2="64.641371" transform="matrix(-3 0 0 0.628864 320 240)" fill="none" stroke="#be4b59" stroke-width="3"/><ellipse rx="5.291117" ry="5.291117" transform="matrix(.85908 0 0 0.85908 320 280.650631)" fill="#be4b59" stroke-width="0"/></g><g transform="matrix(-.980147 0 0 1 633.64704 0.000001)"><line x1="0" y1="-64.641371" x2="0" y2="64.641371" transform="matrix(-3 0 0 0.628864 320 240)" fill="none" stroke="#be4b59" stroke-width="3"/><ellipse rx="5.291117" ry="5.291117" transform="matrix(.85908 0 0 0.85908 320 280.650631)" fill="#be4b59" stroke-width="0"/><g transform="matrix(.683202 0.73023-.314 0.293777 189.48699-35.580865)"><line x1="0" y1="-64.641371" x2="0" y2="64.641371" transform="matrix(-3 0 0 0.628864 320 240)" fill="none" stroke="#be4b59" stroke-width="3"/><ellipse rx="5.291117" ry="5.291117" transform="matrix(.85908 0 0 0.85908 320 199.349369)" fill="#be4b59" stroke-width="0"/><ellipse rx="5.291117" ry="5.291117" transform="matrix(.85908 0 0 0.85908 320 280.650631)" fill="#be4b59" stroke-width="0"/></g></g><g transform="matrix(-1 0 0-1 682.81291 480.000014)"><line x1="0" y1="-64.641371" x2="0" y2="64.641371" transform="matrix(-3 0 0 0.628864 320 240)" fill="none" stroke="#be4b59" stroke-width="3"/><ellipse rx="5.291117" ry="5.291117" transform="matrix(.85908 0 0 0.85908 320 199.349369)" fill="#be4b59" stroke-width="0"/><ellipse rx="5.291117" ry="5.291117" transform="matrix(.85908 0 0 0.85908 345.515851 256.766154)" fill="#be4b59" stroke-width="0"/><ellipse rx="5.291117" ry="5.291117" transform="matrix(.85908 0 0 0.85908 294.888004 256.547905)" fill="#be4b59" stroke-width="0"/><ellipse rx="5.291117" ry="5.291117" transform="matrix(.85908 0 0 0.85908 320 280.650631)" fill="#be4b59" stroke-width="0"/><g transform="matrix(.683202 0.73023-.314 0.293777 189.48699-35.580865)"><line x1="0" y1="-64.641371" x2="0" y2="64.641371" transform="matrix(-3 0 0 0.628864 320 240)" fill="none" stroke="#be4b59" stroke-width="3"/><ellipse rx="5.291117" ry="5.291117" transform="matrix(.85908 0 0 0.85908 320 280.650631)" fill="#be4b59" stroke-width="0"/></g><g transform="matrix(-.980147 0 0 1 633.64704 0.000001)"><line x1="0" y1="-64.641371" x2="0" y2="64.641371" transform="matrix(-3 0 0 0.628864 320 240)" fill="none" stroke="#be4b59" stroke-width="3"/><ellipse rx="5.291117" ry="5.291117" transform="matrix(.85908 0 0 0.85908 320 280.650631)" fill="#be4b59" stroke-width="0"/><g transform="matrix(.683202 0.73023-.314 0.293777 189.48699-35.580865)"><line x1="0" y1="-64.641371" x2="0" y2="64.641371" transform="matrix(-3 0 0 0.628864 320 240)" fill="none" stroke="#be4b59" stroke-width="3"/><ellipse rx="5.291117" ry="5.291117" transform="matrix(.85908 0 0 0.85908 320 199.349369)" fill="#be4b59" stroke-width="0"/><ellipse rx="5.291117" ry="5.291117" transform="matrix(.85908 0 0 0.85908 320 280.650631)" fill="#be4b59" stroke-width="0"/></g></g></g><g transform="matrix(.707107 0.707107-.707107 0.707107 129.92153-166.855896)"><line x1="0" y1="-64.641371" x2="0" y2="64.641371" transform="matrix(-3 0 0 0.628864 320 240)" fill="none" stroke="#be4b59" stroke-width="3"/><ellipse rx="5.291117" ry="5.291117" transform="matrix(.85908 0 0 0.85908 320 199.349369)" fill="#be4b59" stroke-width="0"/><ellipse rx="5.291117" ry="5.291117" transform="matrix(.85908 0 0 0.85908 345.515851 256.766154)" fill="#be4b59" stroke-width="0"/><ellipse rx="5.291117" ry="5.291117" transform="matrix(.85908 0 0 0.85908 294.888004 256.547905)" fill="#be4b59" stroke-width="0"/><ellipse rx="5.291117" ry="5.291117" transform="matrix(.85908 0 0 0.85908 320 280.650631)" fill="#be4b59" stroke-width="0"/><g transform="matrix(.683202 0.73023-.314 0.293777 189.48699-35.580865)"><line x1="0" y1="-64.641371" x2="0" y2="64.641371" transform="matrix(-3 0 0 0.628864 320 240)" fill="none" stroke="#be4b59" stroke-width="3"/><ellipse rx="5.291117" ry="5.291117" transform="matrix(.85908 0 0 0.85908 320 280.650631)" fill="#be4b59" stroke-width="0"/></g><g transform="matrix(-.980147 0 0 1 633.64704 0.000001)"><line x1="0" y1="-64.641371" x2="0" y2="64.641371" transform="matrix(-3 0 0 0.628864 320 240)" fill="none" stroke="#be4b59" stroke-width="3"/><ellipse rx="5.291117" ry="5.291117" transform="matrix(.85908 0 0 0.85908 320 280.650631)" fill="#be4b59" stroke-width="0"/><g transform="matrix(.683202 0.73023-.314 0.293777 189.48699-35.580865)"><line x1="0" y1="-64.641371" x2="0" y2="64.641371" transform="matrix(-3 0 0 0.628864 320 240)" fill="none" stroke="#be4b59" stroke-width="3"/><ellipse rx="5.291117" ry="5.291117" transform="matrix(.85908 0 0 0.85908 320 199.349369)" fill="#be4b59" stroke-width="0"/><ellipse rx="5.291117" ry="5.291117" transform="matrix(.85908 0 0 0.85908 320 280.650631)" fill="#be4b59" stroke-width="0"/></g></g><g transform="matrix(-1 0 0-1 682.81291 480.000014)"><line x1="0" y1="-64.641371" x2="0" y2="64.641371" transform="matrix(-3 0 0 0.628864 320 240)" fill="none" stroke="#be4b59" stroke-width="3"/><ellipse rx="5.291117" ry="5.291117" transform="matrix(.85908 0 0 0.85908 320 199.349369)" fill="#be4b59" stroke-width="0"/><ellipse rx="5.291117" ry="5.291117" transform="matrix(.85908 0 0 0.85908 345.515851 256.766154)" fill="#be4b59" stroke-width="0"/><ellipse rx="5.291117" ry="5.291117" transform="matrix(.85908 0 0 0.85908 294.888004 256.547905)" fill="#be4b59" stroke-width="0"/><ellipse rx="5.291117" ry="5.291117" transform="matrix(.85908 0 0 0.85908 320 280.650631)" fill="#be4b59" stroke-width="0"/><g transform="matrix(.683202 0.73023-.314 0.293777 189.48699-35.580865)"><line x1="0" y1="-64.641371" x2="0" y2="64.641371" transform="matrix(-3 0 0 0.628864 320 240)" fill="none" stroke="#be4b59" stroke-width="3"/><ellipse rx="5.291117" ry="5.291117" transform="matrix(.85908 0 0 0.85908 320 280.650631)" fill="#be4b59" stroke-width="0"/></g><g transform="matrix(-.980147 0 0 1 633.64704 0.000001)"><line x1="0" y1="-64.641371" x2="0" y2="64.641371" transform="matrix(-3 0 0 0.628864 320 240)" fill="none" stroke="#be4b59" stroke-width="3"/><ellipse rx="5.291117" ry="5.291117" transform="matrix(.85908 0 0 0.85908 320 280.650631)" fill="#be4b59" stroke-width="0"/><g transform="matrix(.683202 0.73023-.314 0.293777 189.48699-35.580865)"><line x1="0" y1="-64.641371" x2="0" y2="64.641371" transform="matrix(-3 0 0 0.628864 320 240)" fill="none" stroke="#be4b59" stroke-width="3"/><ellipse rx="5.291117" ry="5.291117" transform="matrix(.85908 0 0 0.85908 320 199.349369)" fill="#be4b59" stroke-width="0"/><ellipse rx="5.291117" ry="5.291117" transform="matrix(.85908 0 0 0.85908 320 280.650631)" fill="#be4b59" stroke-width="0"/></g></g></g><g transform="matrix(0 1-1 0 778.172851-304.198168)"><line x1="0" y1="-64.641371" x2="0" y2="64.641371" transform="matrix(-3 0 0 0.628864 320 240)" fill="none" stroke="#be4b59" stroke-width="3"/><ellipse rx="5.291117" ry="5.291117" transform="matrix(.85908 0 0 0.85908 320 199.349369)" fill="#be4b59" stroke-width="0"/><ellipse rx="5.291117" ry="5.291117" transform="matrix(.85908 0 0 0.85908 345.515851 256.766154)" fill="#be4b59" stroke-width="0"/><ellipse rx="5.291117" ry="5.291117" transform="matrix(.85908 0 0 0.85908 294.888004 256.547905)" fill="#be4b59" stroke-width="0"/><ellipse rx="5.291117" ry="5.291117" transform="matrix(.85908 0 0 0.85908 320 280.650631)" fill="#be4b59" stroke-width="0"/><g transform="matrix(.683202 0.73023-.314 0.293777 189.48699-35.580865)"><line x1="0" y1="-64.641371" x2="0" y2="64.641371" transform="matrix(-3 0 0 0.628864 320 240)" fill="none" stroke="#be4b59" stroke-width="3"/><ellipse rx="5.291117" ry="5.291117" transform="matrix(.85908 0 0 0.85908 320 280.650631)" fill="#be4b59" stroke-width="0"/></g><g transform="matrix(-.980147 0 0 1 633.64704 0.000001)"><line x1="0" y1="-64.641371" x2="0" y2="64.641371" transform="matrix(-3 0 0 0.628864 320 240)" fill="none" stroke="#be4b59" stroke-width="3"/><ellipse rx="5.291117" ry="5.291117" transform="matrix(.85908 0 0 0.85908 320 280.650631)" fill="#be4b59" stroke-width="0"/><g transform="matrix(.683202 0.73023-.314 0.293777 189.48699-35.580865)"><line x1="0" y1="-64.641371" x2="0" y2="64.641371" transform="matrix(-3 0 0 0.628864 320 240)" fill="none" stroke="#be4b59" stroke-width="3"/><ellipse rx="5.291117" ry="5.291117" transform="matrix(.85908 0 0 0.85908 320 199.349369)" fill="#be4b59" stroke-width="0"/><ellipse rx="5.291117" ry="5.291117" transform="matrix(.85908 0 0 0.85908 320 280.650631)" fill="#be4b59" stroke-width="0"/></g></g><g transform="matrix(-1 0 0-1 682.81291 480.000014)"><line x1="0" y1="-64.641371" x2="0" y2="64.641371" transform="matrix(-3 0 0 0.628864 320 240)" fill="none" stroke="#be4b59" stroke-width="3"/><ellipse rx="5.291117" ry="5.291117" transform="matrix(.85908 0 0 0.85908 320 199.349369)" fill="#be4b59" stroke-width="0"/><ellipse rx="5.291117" ry="5.291117" transform="matrix(.85908 0 0 0.85908 345.515851 256.766154)" fill="#be4b59" stroke-width="0"/><ellipse rx="5.291117" ry="5.291117" transform="matrix(.85908 0 0 0.85908 294.888004 256.547905)" fill="#be4b59" stroke-width="0"/><ellipse rx="5.291117" ry="5.291117" transform="matrix(.85908 0 0 0.85908 320 280.650631)" fill="#be4b59" stroke-width="0"/><g transform="matrix(.683202 0.73023-.314 0.293777 189.48699-35.580865)"><line x1="0" y1="-64.641371" x2="0" y2="64.641371" transform="matrix(-3 0 0 0.628864 320 240)" fill="none" stroke="#be4b59" stroke-width="3"/><ellipse rx="5.291117" ry="5.291117" transform="matrix(.85908 0 0 0.85908 320 280.650631)" fill="#be4b59" stroke-width="0"/></g><g transform="matrix(-.980147 0 0 1 633.64704 0.000001)"><line x1="0" y1="-64.641371" x2="0" y2="64.641371" transform="matrix(-3 0 0 0.628864 320 240)" fill="none" stroke="#be4b59" stroke-width="3"/><ellipse rx="5.291117" ry="5.291117" transform="matrix(.85908 0 0 0.85908 320 280.650631)" fill="#be4b59" stroke-width="0"/><g transform="matrix(.683202 0.73023-.314 0.293777 189.48699-35.580865)"><line x1="0" y1="-64.641371" x2="0" y2="64.641371" transform="matrix(-3 0 0 0.628864 320 240)" fill="none" stroke="#be4b59" stroke-width="3"/><ellipse rx="5.291117" ry="5.291117" transform="matrix(.85908 0 0 0.85908 320 199.349369)" fill="#be4b59" stroke-width="0"/><ellipse rx="5.291117" ry="5.291117" transform="matrix(.85908 0 0 0.85908 320 280.650631)" fill="#be4b59" stroke-width="0"/></g></g></g></g></g></g><rect width="99.1246" height="91.881496" rx="5" ry="5" transform="matrix(1 0 0 0.73494 267.667507 329.060314)" fill="#dcdcdc" stroke-width="0"/><rect width="99.1246" height="91.881496" rx="5" ry="5" transform="matrix(.904101 0 0 0.62473 272.525234 334.123444)" fill="#be4b59" stroke-width="0"/><path d="M311.618738,396.587701h18.952251l4.383892,13.930092h-27.881635l4.545492-13.930092Z" transform="translate(-1.176522-1.098699)" fill="#dcdcdc" stroke-width="1.28"/><rect width="70.805331" height="25.324438" rx="1" ry="1" transform="translate(284.434865 414.931717)" fill="#dcdcdc" stroke-width="0"/><rect width="6.146961" height="6.146961" rx="1" ry="1" transform="translate(286.175107 417.050954)" fill="#be4b59" stroke-width="0"/><rect width="6.146961" height="6.146961" rx="1" ry="1" transform="translate(294.89872 417.050954)" fill="#be4b59" stroke-width="0"/><rect width="6.146961" height="6.146961" rx="1" ry="1" transform="translate(304.202855 417.050954)" fill="#be4b59" stroke-width="0"/><rect width="6.146961" height="6.146961" rx="1" ry="1" transform="translate(312.593342 417.050954)" fill="#be4b59" stroke-width="0"/><rect width="6.146961" height="6.146961" rx="1" ry="1" transform="translate(347.353016 417.050954)" fill="#be4b59" stroke-width="0"/><rect width="6.146961" height="6.146961" rx="1" ry="1" transform="translate(338.962528 417.050954)" fill="#be4b59" stroke-width="0"/><rect width="6.146961" height="6.146961" rx="1" ry="1" transform="translate(338.962516 424.520455)" fill="#be4b59" stroke-width="0"/><rect width="6.146961" height="6.146961" rx="1" ry="1" transform="translate(329.658379 424.520455)" fill="#be4b59" stroke-width="0"/><rect width="6.146961" height="6.146961" rx="1" ry="1" transform="translate(320.934766 424.520455)" fill="#be4b59" stroke-width="0"/><rect width="6.146961" height="6.146961" rx="1" ry="1" transform="translate(312.59333 424.520455)" fill="#be4b59" stroke-width="0"/><rect width="6.146961" height="6.146961" rx="1" ry="1" transform="translate(304.202843 424.520455)" fill="#be4b59" stroke-width="0"/><rect width="6.146961" height="6.146961" rx="1" ry="1" transform="translate(294.898708 424.520455)" fill="#be4b59" stroke-width="0"/><rect width="6.146961" height="6.146961" rx="1" ry="1" transform="translate(286.175095 424.520455)" fill="#be4b59" stroke-width="0"/><rect width="6.146961" height="6.146961" rx="1" ry="1" transform="translate(286.175095 431.908606)" fill="#be4b59" stroke-width="0"/><rect width="6.146961" height="6.146961" rx="1" ry="1" transform="translate(294.898708 431.908606)" fill="#be4b59" stroke-width="0"/><rect width="6.146961" height="6.146961" rx="1" ry="1" transform="translate(338.962516 431.908606)" fill="#be4b59" stroke-width="0"/><rect width="6.146961" height="6.146961" rx="1" ry="1" transform="translate(347.353004 431.908606)" fill="#be4b59" stroke-width="0"/><rect width="6.146961" height="6.146961" rx="1" ry="1" transform="translate(347.353004 424.520455)" fill="#be4b59" stroke-width="0"/><rect width="6.146961" height="6.146961" rx="1" ry="1" transform="translate(329.658391 417.050954)" fill="#be4b59" stroke-width="0"/><rect width="6.146961" height="6.146961" rx="1" ry="1" transform="translate(320.934778 417.050954)" fill="#be4b59" stroke-width="0"/><rect width="31.602497" height="6.146961" rx="1" ry="1" transform="translate(304.202855 431.908607)" fill="#be4b59" stroke-width="0"/><ellipse rx="9.942285" ry="11.6026" transform="translate(375.129993 427.593936)" fill="#dcdcdc" stroke-width="0"/><ellipse rx="9.942285" ry="11.6026" transform="matrix(.187847 0 0 0.361941 375.129993 423.197915)" fill="#be4b59" stroke-width="0"/><g transform="translate(-8.10195-44.785253)"><rect width="61.351089" height="103.932123" rx="2" ry="2" transform="matrix(.545571 0 0 0.545574 507.247425 362.824008)" fill="#dcdcdc" stroke-width="0"/><rect width="61.351089" height="103.932123" rx="2" ry="2" transform="matrix(.449843 0 0 0.449847 510.183934 365.764553)" fill="#be4b59" stroke-width="0"/><ellipse rx="2.5617" ry="2.5617" transform="translate(523.983113 415.991336)" fill="#be4b59" stroke-width="0"/></g><rect width="85.261884" height="134.604343" rx="2" ry="2" transform="translate(72.767669 303.451225)" fill="#b3b3b3" stroke-width="0"/><rect width="85.261884" height="134.604343" rx="1" ry="1" transform="matrix(.87189 0 0 0.257492 78.229119 353.423625)" fill="#dcdcdc" stroke-width="0"/><rect width="85.261884" height="134.604343" rx="1" ry="1" transform="matrix(.87189 0 0 0.257492 78.229119 311.730543)" fill="#dcdcdc" stroke-width="0"/><rect width="85.261884" height="134.604343" rx="1" ry="1" transform="matrix(.87189 0 0 0.257492 78.229119 395.188336)" fill="#dcdcdc" stroke-width="0"/><ellipse rx="2.5617" ry="2.5617" transform="translate(129.959532 331.561744)" fill="#be4b59" stroke-width="0"/><ellipse rx="2.5617" ry="2.5617" transform="translate(140.629809 331.561744)" fill="#be4b59" stroke-width="0"/><ellipse rx="2.5617" ry="2.5617" transform="translate(119.147412 331.561744)" fill="#be4b59" stroke-width="0"/><ellipse rx="2.5617" ry="2.5617" transform="translate(119.218334 370.753397)" fill="#be4b59" stroke-width="0"/><ellipse rx="2.5617" ry="2.5617" transform="translate(119.147411 412.518107)" fill="#be4b59" stroke-width="0"/><ellipse rx="2.5617" ry="2.5617" transform="translate(130.030454 370.753397)" fill="#be4b59" stroke-width="0"/><ellipse rx="2.5617" ry="2.5617" transform="translate(140.700731 370.753397)" fill="#be4b59" stroke-width="0"/><ellipse rx="2.5617" ry="2.5617" transform="translate(129.95953 412.518107)" fill="#be4b59" stroke-width="0"/><ellipse rx="2.5617" ry="2.5617" transform="translate(140.629809 412.518107)" fill="#be4b59" stroke-width="0"/></svg>