<svg id="ePpvcqKe69O1" xmlns="http://www.w3.org/2000/svg" xmlns:xlink="http://www.w3.org/1999/xlink" viewBox="0 0 640 480" shape-rendering="geometricPrecision" text-rendering="geometricPrecision"><g transform="matrix(.83586 0 0 0.835863 46.695357 67.276971)"><g><ellipse rx="72.0371" ry="72.0371" transform="translate(320 240)" fill="#be4b59" stroke-width="0"/><ellipse rx="72.0371" ry="72.0371" transform="matrix(.58514 0 0 0.58514 247.963 269.885)" fill="#be4b59" stroke-width="0"/><ellipse rx="72.0371" ry="72.0371" transform="matrix(.58514 0 0 0.58514 392.037 269.885)" fill="#be4b59" stroke-width="0"/><ellipse rx="72.0371" ry="72.0371" transform="matrix(.332981 0 0 0.332981 434.189 288.05)" fill="#be4b59" stroke-width="0"/><rect width="192.844" height="23.987" rx="0" ry="0" transform="matrix(.956147 0 0 0.999998 247.963 288.05)" fill="#be4b59" stroke-width="0"/></g><g transform="matrix(-.708626-.705584-.705584 0.708626 703.349 305.97)"><ellipse rx="18.5571" ry="24.1415" transform="translate(338.557 125.59)" fill="#73d892" stroke-width="0"/><ellipse rx="18.5571" ry="24.1415" transform="matrix(.514201 0.523022-.52302 0.514199 369.869 145.844)" fill="#73d892" stroke-width="0"/></g></g><g transform="translate(-6.420998 36.390485)"><rect width="119.012363" height="17.012788" rx="0" ry="0" transform="translate(79.632208 222.987212)" fill="#be4b59" stroke-width="0"/><rect width="119.012363" height="17.012788" rx="0" ry="0" transform="translate(79.632208 222.987212)" fill="#be4b59" stroke-width="0"/><g transform="matrix(-1 0 0-1 651.899673 462.987209)"><rect width="119.012363" height="17.012788" rx="0" ry="0" transform="translate(79.632208 222.987212)" fill="#be4b59" stroke-width="0"/><ellipse rx="8.317827" ry="8.317827" transform="matrix(1.02267 0 0 1.02267 79.46541 231.493606)" fill="#be4b59" stroke-width="0"/><ellipse rx="8.317827" ry="8.317827" transform="matrix(1.02267 0 0 1.02267 198.644571 231.493604)" fill="#be4b59" stroke-width="0"/></g><ellipse rx="8.317827" ry="8.317827" transform="matrix(1.02267 0 0 1.02267 79.46541 231.493606)" fill="#be4b59" stroke-width="0"/><ellipse rx="8.317827" ry="8.317827" transform="matrix(1.02267 0 0 1.02267 198.644571 231.493604)" fill="#be4b59" stroke-width="0"/><g transform="matrix(-1 0 0-1 651.899673 462.987209)"><rect width="119.012363" height="17.012788" rx="0" ry="0" transform="translate(79.632208 222.987212)" fill="#be4b59" stroke-width="0"/><ellipse rx="8.317827" ry="8.317827" transform="matrix(1.02267 0 0 1.02267 79.46541 231.493606)" fill="#be4b59" stroke-width="0"/><ellipse rx="8.317827" ry="8.317827" transform="matrix(1.02267 0 0 1.02267 198.644571 231.493604)" fill="#be4b59" stroke-width="0"/></g><g transform="matrix(0 0.810354-.810354 0 513.97106-45.542325)"><rect width="119.012363" height="17.012788" rx="0" ry="0" transform="translate(79.632208 222.987212)" fill="#be4b59" stroke-width="0"/><rect width="119.012363" height="17.012788" rx="0" ry="0" transform="translate(79.632208 222.987212)" fill="#be4b59" stroke-width="0"/><g transform="matrix(-1 0 0-1 651.899673 462.987209)"><rect width="119.012363" height="17.012788" rx="0" ry="0" transform="translate(79.632208 222.987212)" fill="#be4b59" stroke-width="0"/><ellipse rx="8.317827" ry="8.317827" transform="matrix(1.02267 0 0 1.02267 79.46541 231.493606)" fill="#be4b59" stroke-width="0"/><ellipse rx="8.317827" ry="8.317827" transform="matrix(1.02267 0 0 1.02267 198.644571 231.493604)" fill="#be4b59" stroke-width="0"/></g><ellipse rx="8.317827" ry="8.317827" transform="matrix(1.02267 0 0 1.02267 79.46541 231.493606)" fill="#be4b59" stroke-width="0"/><ellipse rx="8.317827" ry="8.317827" transform="matrix(1.02267 0 0 1.02267 198.644571 231.493604)" fill="#be4b59" stroke-width="0"/><g transform="matrix(-1 0 0-1 651.899673 462.987209)"><rect width="119.012363" height="17.012788" rx="0" ry="0" transform="translate(79.632208 222.987212)" fill="#be4b59" stroke-width="0"/><ellipse rx="8.317827" ry="8.317827" transform="matrix(1.02267 0 0 1.02267 79.46541 231.493606)" fill="#be4b59" stroke-width="0"/><ellipse rx="8.317827" ry="8.317827" transform="matrix(1.02267 0 0 1.02267 198.644571 231.493604)" fill="#be4b59" stroke-width="0"/></g></g><g transform="matrix(.707107 0.707107-.707107 0.707107 259.618135-162.648973)"><rect width="119.012363" height="17.012788" rx="0" ry="0" transform="translate(79.632208 222.987212)" fill="#be4b59" stroke-width="0"/><rect width="119.012363" height="17.012788" rx="0" ry="0" transform="translate(79.632208 222.987212)" fill="#be4b59" stroke-width="0"/><g transform="matrix(-1 0 0-1 651.899673 462.987209)"><rect width="119.012363" height="17.012788" rx="0" ry="0" transform="translate(79.632208 222.987212)" fill="#be4b59" stroke-width="0"/><ellipse rx="8.317827" ry="8.317827" transform="matrix(1.02267 0 0 1.02267 79.46541 231.493606)" fill="#be4b59" stroke-width="0"/><ellipse rx="8.317827" ry="8.317827" transform="matrix(1.02267 0 0 1.02267 198.644571 231.493604)" fill="#be4b59" stroke-width="0"/></g><ellipse rx="8.317827" ry="8.317827" transform="matrix(1.02267 0 0 1.02267 79.46541 231.493606)" fill="#be4b59" stroke-width="0"/><ellipse rx="8.317827" ry="8.317827" transform="matrix(1.02267 0 0 1.02267 198.644571 231.493604)" fill="#be4b59" stroke-width="0"/><g transform="matrix(-1 0 0-1 651.899673 462.987209)"><rect width="119.012363" height="17.012788" rx="0" ry="0" transform="translate(79.632208 222.987212)" fill="#be4b59" stroke-width="0"/><ellipse rx="8.317827" ry="8.317827" transform="matrix(1.02267 0 0 1.02267 79.46541 231.493606)" fill="#be4b59" stroke-width="0"/><ellipse rx="8.317827" ry="8.317827" transform="matrix(1.02267 0 0 1.02267 198.644571 231.493604)" fill="#be4b59" stroke-width="0"/></g><g transform="matrix(0 1-1 0 557.872896-94.414559)"><rect width="119.012363" height="17.012788" rx="0" ry="0" transform="translate(79.632208 222.987212)" fill="#be4b59" stroke-width="0"/><rect width="119.012363" height="17.012788" rx="0" ry="0" transform="translate(79.632208 222.987212)" fill="#be4b59" stroke-width="0"/><g transform="matrix(-1 0 0-1 651.899673 462.987209)"><rect width="119.012363" height="17.012788" rx="0" ry="0" transform="translate(79.632208 222.987212)" fill="#be4b59" stroke-width="0"/><ellipse rx="8.317827" ry="8.317827" transform="matrix(1.02267 0 0 1.02267 79.46541 231.493606)" fill="#be4b59" stroke-width="0"/><ellipse rx="8.317827" ry="8.317827" transform="matrix(1.02267 0 0 1.02267 198.644571 231.493604)" fill="#be4b59" stroke-width="0"/></g><ellipse rx="8.317827" ry="8.317827" transform="matrix(1.02267 0 0 1.02267 79.46541 231.493606)" fill="#be4b59" stroke-width="0"/><ellipse rx="8.317827" ry="8.317827" transform="matrix(1.02267 0 0 1.02267 198.644571 231.493604)" fill="#be4b59" stroke-width="0"/><g transform="matrix(-1 0 0-1 651.899673 462.987209)"><rect width="119.012363" height="17.012788" rx="0" ry="0" transform="translate(79.632208 222.987212)" fill="#be4b59" stroke-width="0"/><ellipse rx="8.317827" ry="8.317827" transform="matrix(1.02267 0 0 1.02267 79.46541 231.493606)" fill="#be4b59" stroke-width="0"/><ellipse rx="8.317827" ry="8.317827" transform="matrix(1.02267 0 0 1.02267 198.644571 231.493604)" fill="#be4b59" stroke-width="0"/></g></g></g></g></svg>