<svg id="ePSqzsOYk6N1" xmlns="http://www.w3.org/2000/svg" xmlns:xlink="http://www.w3.org/1999/xlink" viewBox="0 0 640 480" shape-rendering="geometricPrecision" text-rendering="geometricPrecision"><g transform="translate(.000001 0)"><rect width="148.990774" height="22.619062" rx="0" ry="0" transform="matrix(1 0 0 2.721013 272.972379 280.307781)" fill="#7e828a" stroke-width="0"/><ellipse rx="74.495387" ry="17.701874" transform="translate(347.467766 282.069757)" fill="#45474a" stroke-width="0"/><ellipse rx="74.495387" ry="17.701874" transform="translate(347.467766 341.854543)" fill="#7e828a" stroke-width="0"/><g transform="translate(.000001-71.962158)"><rect width="148.990774" height="22.619062" rx="0" ry="0" transform="matrix(1 0 0 2.721013 272.972379 280.307781)" fill="#7e828a" stroke-width="0"/><ellipse rx="74.495387" ry="17.701874" transform="translate(347.467766 282.069757)" fill="#45474a" stroke-width="0"/><ellipse rx="74.495387" ry="17.701874" transform="translate(347.467766 341.854543)" fill="#7e828a" stroke-width="0"/><g transform="translate(.000001-71.962158)"><rect width="148.990774" height="22.619062" rx="0" ry="0" transform="matrix(1 0 0 2.721013 272.972379 280.307781)" fill="#7e828a" stroke-width="0"/><ellipse rx="74.495387" ry="17.701874" transform="translate(347.467766 282.069757)" fill="#45474a" stroke-width="0"/><ellipse rx="74.495387" ry="17.701874" transform="translate(347.467766 341.854543)" fill="#7e828a" stroke-width="0"/></g></g></g><ellipse rx="10.731114" ry="10.731114" transform="translate(336.736653 181.674611)" fill="#e89f51" stroke-width="0"/><ellipse rx="10.731114" ry="10.731114" transform="translate(370.158214 181.674611)" fill="#e89f51" stroke-width="0"/><ellipse rx="10.731114" ry="10.731114" transform="translate(403.739444 177.88796)" fill="#e89f51" stroke-width="0"/></svg>