<svg id="eRvAcGHd5Ls1" xmlns="http://www.w3.org/2000/svg" xmlns:xlink="http://www.w3.org/1999/xlink" viewBox="0 0 640 480" shape-rendering="geometricPrecision" text-rendering="geometricPrecision"><g transform="matrix(2.440961 0 0 2.440968-490.383427-305.523207)"><g><ellipse rx="72.0371" ry="72.0371" transform="translate(320 240)" fill="#be4b59" stroke-width="0"/><ellipse rx="72.0371" ry="72.0371" transform="matrix(.58514 0 0 0.58514 247.963 269.885)" fill="#be4b59" stroke-width="0"/><ellipse rx="72.0371" ry="72.0371" transform="matrix(.58514 0 0 0.58514 392.037 269.885)" fill="#be4b59" stroke-width="0"/><ellipse rx="72.0371" ry="72.0371" transform="matrix(.332981 0 0 0.332981 434.189 288.05)" fill="#be4b59" stroke-width="0"/><rect width="192.844" height="23.987" rx="0" ry="0" transform="matrix(.956147 0 0 0.999998 247.963 288.05)" fill="#be4b59" stroke-width="0"/></g><g transform="matrix(-.708626-.705584-.705584 0.708626 703.349 305.97)"><ellipse rx="18.5571" ry="24.1415" transform="translate(338.557 125.59)" fill="#73d892" stroke-width="0"/><ellipse rx="18.5571" ry="24.1415" transform="matrix(.514201 0.523022-.52302 0.514199 369.869 145.844)" fill="#73d892" stroke-width="0"/></g></g></svg>