<svg id="eG0dNcKL2h91" xmlns="http://www.w3.org/2000/svg" xmlns:xlink="http://www.w3.org/1999/xlink" viewBox="0 0 640 480" shape-rendering="geometricPrecision" text-rendering="geometricPrecision"><rect width="324.525" height="219.501" rx="12" ry="12" transform="matrix(1 0 0 0.630327 157.7375 219.070972)" fill="#73d892" stroke-width="0"/><g transform="translate(.000001 0.000001)"><ellipse rx="6.922889" ry="6.922889" transform="matrix(1.000001 0 0 1.000001 180.128113 233.077111)" fill="#fdcb82" stroke-width="0"/><ellipse rx="6.922889" ry="6.922889" transform="matrix(1.000001 0 0 1.000001 345.946041 233.077111)" fill="#fdcb82" stroke-width="0"/><ellipse rx="6.922889" ry="6.922889" transform="matrix(1.000001 0 0 1.000001 345.946041 251.269714)" fill="#fdcb82" stroke-width="0"/><ellipse rx="6.922889" ry="6.922889" transform="matrix(1.000001 0 0 1.000001 428.535575 251.269714)" fill="#fdcb82" stroke-width="0"/><ellipse rx="6.922889" ry="6.922889" transform="matrix(1.000001 0 0 1.000001 448.639606 251.269714)" fill="#fdcb82" stroke-width="0"/><ellipse rx="6.922889" ry="6.922889" transform="matrix(1.000001 0 0 1.000001 469.286991 251.269714)" fill="#fdcb82" stroke-width="0"/><ellipse rx="6.922889" ry="6.922889" transform="matrix(1.000001 0 0 1.000001 469.286991 233.077111)" fill="#fdcb82" stroke-width="0"/><ellipse rx="6.922889" ry="6.922889" transform="matrix(1.000001 0 0 1.000001 448.639606 233.077111)" fill="#fdcb82" stroke-width="0"/><ellipse rx="6.922889" ry="6.922889" transform="matrix(1.000001 0 0 1.000001 428.535575 233.077111)" fill="#fdcb82" stroke-width="0"/><ellipse rx="6.922889" ry="6.922889" transform="matrix(1.000001 0 0 1.000001 366.050072 251.269714)" fill="#fdcb82" stroke-width="0"/><ellipse rx="6.922889" ry="6.922889" transform="matrix(1.000001 0 0 1.000001 406.801488 251.269714)" fill="#fdcb82" stroke-width="0"/><ellipse rx="6.922889" ry="6.922889" transform="matrix(1.000001 0 0 1.000001 386.697457 251.269714)" fill="#fdcb82" stroke-width="0"/><ellipse rx="6.922889" ry="6.922889" transform="matrix(1.000001 0 0 1.000001 386.697457 233.077111)" fill="#fdcb82" stroke-width="0"/><ellipse rx="6.922889" ry="6.922889" transform="matrix(1.000001 0 0 1.000001 366.050072 233.077111)" fill="#fdcb82" stroke-width="0"/><ellipse rx="6.922889" ry="6.922889" transform="matrix(1.000001 0 0 1.000001 406.801488 233.077111)" fill="#fdcb82" stroke-width="0"/><ellipse rx="6.922889" ry="6.922889" transform="matrix(1.000001 0 0 1.000001 180.128113 251.269714)" fill="#fdcb82" stroke-width="0"/><ellipse rx="6.922889" ry="6.922889" transform="matrix(1.000001 0 0 1.000001 262.717647 251.269714)" fill="#fdcb82" stroke-width="0"/><ellipse rx="6.922889" ry="6.922889" transform="matrix(1.000001 0 0 1.000001 282.821678 251.269714)" fill="#fdcb82" stroke-width="0"/><ellipse rx="6.922889" ry="6.922889" transform="matrix(1.000001 0 0 1.000001 303.469063 251.269714)" fill="#fdcb82" stroke-width="0"/><ellipse rx="6.922889" ry="6.922889" transform="matrix(1.000001 0 0 1.000001 326.922896 251.269714)" fill="#fdcb82" stroke-width="0"/><ellipse rx="6.922889" ry="6.922889" transform="matrix(1.000001 0 0 1.000001 326.922896 233.077111)" fill="#fdcb82" stroke-width="0"/><ellipse rx="6.922889" ry="6.922889" transform="matrix(1.000001 0 0 1.000001 303.469063 233.077111)" fill="#fdcb82" stroke-width="0"/><ellipse rx="6.922889" ry="6.922889" transform="matrix(1.000001 0 0 1.000001 282.821678 233.077111)" fill="#fdcb82" stroke-width="0"/><ellipse rx="6.922889" ry="6.922889" transform="matrix(1.000001 0 0 1.000001 262.717647 233.077111)" fill="#fdcb82" stroke-width="0"/><ellipse rx="6.922889" ry="6.922889" transform="matrix(1.000001 0 0 1.000001 200.232144 251.269714)" fill="#fdcb82" stroke-width="0"/><ellipse rx="6.922889" ry="6.922889" transform="matrix(1.000001 0 0 1.000001 240.98356 251.269714)" fill="#fdcb82" stroke-width="0"/><ellipse rx="6.922889" ry="6.922889" transform="matrix(1.000001 0 0 1.000001 220.879529 251.269714)" fill="#fdcb82" stroke-width="0"/><ellipse rx="6.922889" ry="6.922889" transform="matrix(1.000001 0 0 1.000001 220.879529 233.077111)" fill="#fdcb82" stroke-width="0"/><ellipse rx="6.922889" ry="6.922889" transform="matrix(1.000001 0 0 1.000001 200.232144 233.077111)" fill="#fdcb82" stroke-width="0"/><ellipse rx="6.922889" ry="6.922889" transform="matrix(1.000001 0 0 1.000001 240.98356 233.077111)" fill="#fdcb82" stroke-width="0"/></g><rect width="12.975508" height="69.178703" rx="0" ry="0" transform="translate(469.722134 272.074408)" fill="#d2dbed" stroke-width="0"/><rect width="12.975508" height="69.178703" rx="0" ry="0" transform="matrix(.454025 0 0 0.826254 482.2625 278.08417)" fill="#525457" stroke-width="0"/><rect width="67.976062" height="67.976062" rx="0" ry="0" transform="matrix(.796314 0 0 0.796314 265.869721 280.199935)" fill="#494b4e" stroke-width="0"/><rect width="67.976062" height="67.976062" rx="0" ry="0" transform="matrix(.704248 0 0 0.77566 166.084603 278.66536)" fill="#d2dbed" stroke-width="0"/><rect width="58.71469" height="37.413548" rx="0" ry="0" transform="translate(184.599289 338.721605)" fill="#d2dbed" stroke-width="0"/><rect width="58.71469" height="37.413548" rx="0" ry="0" transform="matrix(.564473 0 0 0.705339 339.830111 349.745919)" fill="#d2dbed" stroke-width="0"/><rect width="58.71469" height="37.413548" rx="0" ry="0" transform="matrix(.564473 0 0 0.705339 397.152956 349.745919)" fill="#d2dbed" stroke-width="0"/></svg>