<svg id="ePU7kDHpriw1" xmlns="http://www.w3.org/2000/svg" xmlns:xlink="http://www.w3.org/1999/xlink" viewBox="0 0 640 480" shape-rendering="geometricPrecision" text-rendering="geometricPrecision"><rect width="324.52529" height="219.500924" rx="12" ry="12" transform="translate(153.254915 173.752311)" fill="#73d892" stroke-width="0"/><rect width="64" height="48" rx="0" ry="0" transform="translate(420.673205 252.950893)" fill="#d2dbed" stroke-width="0"/><rect width="64" height="48" rx="0" ry="0" transform="matrix(1.213672 0 0 1.21367 390.221437 318.657463)" fill="#d2dbed" stroke-width="0"/><rect width="21.880076" height="41.685583" rx="0" ry="0" transform="matrix(.999995 0 0 0.732659 361.414721 368.402365)" fill="#d2dbed" stroke-width="0"/><rect width="21.880076" height="41.685583" rx="0" ry="0" transform="matrix(.615801 0 0-.189754 365.617818 406.402879)" fill="#707070" stroke-width="0"/><rect width="64" height="48" rx="0" ry="0" transform="matrix(1 0 0 0.859413 264.324253 365.151055)" fill="#d2dbed" stroke-width="0"/><rect width="64" height="48" rx="0" ry="0" transform="matrix(.378538 0 0-.490107 146.827831 376.913623)" fill="#d2dbed" stroke-width="0"/><rect width="14.19326" height="44.163403" rx="0" ry="0" transform="matrix(.619048 0 0 1.397903 342.049246 324.040814)" fill="#e4794c" stroke-width="0"/><rect width="14.19326" height="44.163403" rx="0" ry="0" transform="matrix(.619048 0 0 1.397903 162.267953 252.634697)" fill="#e4794c" stroke-width="0"/><rect width="33.553519" height="33.553519" rx="0" ry="0" transform="matrix(.802739 0 0 0.802739 383.294687 228.509674)" fill="#57585a" stroke-width="0"/><rect width="33.553519" height="33.553519" rx="0" ry="0" transform="matrix(1.212164 0 0 1.229336 287.651885 259.702344)" fill="#57585a" stroke-width="0"/><rect width="226.728967" height="14.19326" rx="0" ry="0" transform="matrix(.647288 0 0 1 171.054263 182.032023)" fill="#404143" stroke-width="0"/><rect width="226.728967" height="14.19326" rx="0" ry="0" transform="matrix(.030235 0 0 3.109992 372.23644 206.439211)" fill="#404143" stroke-width="0"/><rect width="35.232079" height="35.821084" rx="0" ry="0" transform="matrix(.81559 0 0 0.81559 340.192287 177.223893)" fill="#f8ba3e" stroke-width="0"/><rect width="35.232079" height="35.821084" rx="0" ry="0" transform="matrix(.567544 0 0 1.009419 344.728369 141.065411)" fill="#423e3e" stroke-width="0"/></svg>