<svg id="eU8hAjYvJ1L1" xmlns="http://www.w3.org/2000/svg" xmlns:xlink="http://www.w3.org/1999/xlink" viewBox="0 0 640 480" shape-rendering="geometricPrecision" text-rendering="geometricPrecision"><rect width="324.525" height="219.501" rx="12" ry="12" transform="translate(153.255 173.752)" fill="#73d892" stroke-width="0"/><rect width="64" height="48" rx="0" ry="0" transform="translate(420.673 184.707)" fill="#d2dbed" stroke-width="0"/><rect width="64" height="48" rx="0" ry="0" transform="translate(420.673 252.951)" fill="#d2dbed" stroke-width="0"/><rect width="64" height="48" rx="0" ry="0" transform="matrix(1.21367 0 0 1.21367 406.998 319.845)" fill="#d2dbed" stroke-width="0"/><rect width="21.8801" height="41.6856" rx="0" ry="0" transform="matrix(.999995 0 0 0.732659 361.415 368.402)" fill="#d2dbed" stroke-width="0"/><rect width="21.8801" height="41.6856" rx="0" ry="0" transform="matrix(.615801 0 0-.189754 365.618 406.403)" fill="#707070" stroke-width="0"/><rect width="64" height="48" rx="0" ry="0" transform="matrix(1 0 0 0.859413 264.324 365.151)" fill="#d2dbed" stroke-width="0"/><rect width="64" height="48" rx="0" ry="0" transform="matrix(.814765 0 0 0.70022 270.25152 368.971737)" fill="#df8829" stroke-width="0"/><rect width="64" height="48" rx="0" ry="0" transform="matrix(.378538 0 0-.490107 209.397 406.403)" fill="#d2dbed" stroke-width="0"/><rect width="14.1933" height="44.1634" rx="0" ry="0" transform="matrix(.619048 0 0 1.3979 342.049 324.041)" fill="#34363a" stroke-width="0"/><rect width="14.1933" height="44.1634" rx="0" ry="0" transform="matrix(.619048 0 0 1.3979 162.268 252.635)" fill="#333639" stroke-width="0"/><rect width="54.485" height="54.485" rx="0" ry="0" transform="translate(237.082 256.26)" fill="#4a4c50" stroke-width="0"/><rect width="33.5535" height="33.5535" rx="0" ry="0" transform="translate(365.618 239.484)" fill="#57585a" stroke-width="0"/><rect width="226.729" height="14.1933" rx="0" ry="0" transform="translate(185.611 180.68)" fill="#404143" stroke-width="0"/></svg>