<svg id="et2cHMQJ9pz1" xmlns="http://www.w3.org/2000/svg" xmlns:xlink="http://www.w3.org/1999/xlink" viewBox="0 0 640 480" shape-rendering="geometricPrecision" text-rendering="geometricPrecision"><rect width="324.52529" height="219.500924" rx="12" ry="12" transform="translate(153.254915 173.752311)" fill="#73d892" stroke-width="0"/><rect width="64" height="48" rx="0" ry="0" transform="translate(420.673205 184.706641)" fill="#d2dbed" stroke-width="0"/><rect width="64" height="48" rx="0" ry="0" transform="translate(420.673205 252.950893)" fill="#d2dbed" stroke-width="0"/><rect width="64" height="48" rx="0" ry="0" transform="matrix(1.213672 0 0 1.21367 406.998197 319.844731)" fill="#d2dbed" stroke-width="0"/><rect width="21.880076" height="41.685583" rx="0" ry="0" transform="matrix(.999995 0 0 0.732659 361.414721 368.402365)" fill="#d2dbed" stroke-width="0"/><rect width="21.880076" height="41.685583" rx="0" ry="0" transform="matrix(.615801 0 0-.189754 365.617818 406.402879)" fill="#707070" stroke-width="0"/><rect width="64" height="48" rx="0" ry="0" transform="matrix(1 0 0 0.859413 264.324253 365.151055)" fill="#d2dbed" stroke-width="0"/><rect width="64" height="48" rx="0" ry="0" transform="matrix(.378538 0 0-.490107 209.397125 406.40286)" fill="#d2dbed" stroke-width="0"/><rect width="14.19326" height="44.163403" rx="0" ry="0" transform="matrix(.619048 0 0 1.397903 342.049246 324.040814)" fill="#34363a" stroke-width="0"/><rect width="14.19326" height="44.163403" rx="0" ry="0" transform="matrix(.619048 0 0 1.397903 162.267953 252.634697)" fill="#333639" stroke-width="0"/><rect width="54.484981" height="54.484981" rx="0" ry="0" transform="translate(237.081763 256.260283)" fill="#4a4c50" stroke-width="0"/><rect width="33.553519" height="33.553519" rx="0" ry="0" transform="translate(365.617818 239.483524)" fill="#57585a" stroke-width="0"/><rect width="226.728967" height="14.19326" rx="0" ry="0" transform="translate(185.610712 180.680284)" fill="#404143" stroke-width="0"/></svg>