<svg id="eCobBZU2jQO1" xmlns="http://www.w3.org/2000/svg" xmlns:xlink="http://www.w3.org/1999/xlink" viewBox="0 0 640 480" shape-rendering="geometricPrecision" text-rendering="geometricPrecision"><rect width="190.099" height="212.558" rx="0" ry="0" transform="translate(249.619 138.565)" fill="#6b6d70" stroke-width="0"/><rect width="92.2561" height="100.089" rx="0" ry="0" transform="matrix(.605847 0.795581-.795581 0.605847 244.672 284.106)" fill="#d3d3d3" stroke-width="0"/><rect width="64" height="48" rx="0" ry="0" transform="matrix(1.77421 0 0 2.8132 287.894 172.483)" fill="#fbfbfb" stroke-width="0"/><path d="" fill="none" stroke="#3f5787" stroke-width="1.28"/><path d="M249.619043,290.056868h22.999536l27.946542,24.368013-4.639905,36.698596-46.306173-40.90784-.000001-20.158763" transform="translate(.000001 0)" fill="#6b6c71" stroke-width="1.28"/><path d="M272.61858,254.576449l72.04999,59.848432-27.208386,10.110135-45.578013-27.077849.736408-36.48711" transform="translate(-11.1316 12.7585)" fill="#6b6c71" stroke-width="1.28"/><rect width="99.4466" height="9.96491" rx="0" ry="0" transform="translate(294.945 208.457)" fill="#3c3d40" stroke-width="0"/><rect width="99.4466" height="9.96491" rx="0" ry="0" transform="translate(294.945 234.88)" fill="#3c3d40" stroke-width="0"/><rect width="99.4466" height="9.96491" rx="0" ry="0" transform="translate(294.945 262.352)" fill="#3c3d40" stroke-width="0"/></svg>